<?xml version="1.0" encoding="utf-8"?>
<!-- Generator: Adobe Illustrator 25.0.1, SVG Export Plug-In . SVG Version: 6.00 Build 0)  -->
<svg fill="#FEFFFE" version="1.1" id="Layer_1" xmlns="http://www.w3.org/2000/svg" xmlns:xlink="http://www.w3.org/1999/xlink" x="0px" y="0px"
	 viewBox="0 0 500 500" style="enable-background:new 0 0 500 500;" xml:space="preserve">
<style type="text/css">
	.st0{fill:none;}
</style>
<g>
	<path d="M128.6,250.9c4.86,12.78,14.74,20.43,26.98,26.16c0,14.72,0,29.59,0,44.65c47.75-0.22,96.07-4.45,142.24-7.11
		c-0.02-34.58,0.09-69.13-0.06-103.71c0.46-19.02,10.63-36.69,28.27-44.42c18.2-8.66,42.59-6.15,57.57,8.93
		c21.79,19.86,19.81,73.08-4.78,90.03c-17.01,12.59-39.49,9.45-53.41-6.01c0,27.26,0,55,0,82.86
		c-65.62,4.88-131.19,6.75-196.81,11.16C128.6,319.26,128.6,285.08,128.6,250.9z M324.3,219.97c0.21,12.46,5.29,28.34,18.5,29.56
		c24.79,4.76,31.43-26.01,25.41-44.16c-2.09-10.7-11.6-18.51-22.71-17.13C329.36,188.38,324.2,206.61,324.3,219.97z"/>
	<path d="M128.6,211.56c4.77-39.9,36.8-56.34,73.91-45.5c46.81,16.46,41.74,100.96-9.83,106.05
		C152.08,279.31,125.62,250.98,128.6,211.56z M205.75,218.14c-0.16-15.08-5.49-33.06-25.42-31.91
		c-21.73,0.63-25.82,26.61-21.58,43.44c2.31,12.07,11.78,21.88,24.81,20.05C199.7,249.43,206.49,232.04,205.75,218.14z"/>
	<path d="M128.6,218.03"/>
</g>
<line class="st0" x1="362.85" y1="396.42" x2="433.56" y2="325.71"/>
</svg>
