<svg width="601" height="277" viewBox="0 0 601 277" fill="none" xmlns="http://www.w3.org/2000/svg">
<path d="M1 271.295C58.9446 273.192 112.721 281.289 170.949 274.033C187.817 271.931 202.12 261.974 219.316 260.931C232.623 260.124 245.324 259.56 258.579 257.998C325.727 250.087 395.071 242.645 462.669 249.981C496.196 253.619 528.541 257.216 562.248 257.216C577.659 257.216 606.654 263.122 595.252 241.573C589.249 230.226 582.935 226.075 586.527 211.263C589.085 200.713 589.138 189.149 593.166 178.999C596.783 169.883 607.214 161.644 595.821 153.187C572.689 136.017 555.246 164.606 541.195 134.024C534.756 120.012 531.308 98.3376 527.538 82.7915C524.351 69.6499 517.006 67.2411 508.191 58.153C501.034 50.7742 499.491 43.2634 496.052 33.5146C491.755 21.3335 478.33 13.9688 468.359 7.11623C449.137 -6.09495 450.42 4.52012 441.425 16.1112C429.162 31.9147 448.254 26.1147 448.254 35.47C448.254 58.4355 416.723 67.5989 400.456 60.8906C393.313 57.9451 379.806 59.2094 373.142 62.8461C364.657 67.4776 365.421 82.8186 357.779 88.0712C331.988 105.797 300.771 123.465 269.011 123.465C251.958 123.465 258.457 126.203 248.526 138.717C242.787 145.948 228.945 135.329 225.575 145.365C220.218 161.32 225.599 165.81 214.195 176.261C206.158 183.626 193.053 189.738 181.95 190.34C163.878 191.321 134.754 188.88 122.202 198.944C117.688 202.564 110.214 200.749 104.942 200.9C92.7423 201.249 80.7287 206.419 68.5243 207.744C56.6772 209.029 44.9985 222.522 37.2279 232.382C25.2913 247.528 21.9146 247.851 4.7935 250.372C2.07917 250.772 7.8283 264.633 7.8283 271.295" stroke="white" stroke-linecap="round" stroke-linejoin="round"/>
<path d="M35 228.673C42.7237 234.884 61.0018 256.684 69.7517 242.026C73.5769 235.618 75.7128 225.138 66.2766 225.138C52.6919 225.138 59.3262 222.025 59.3262 211" stroke="white" stroke-linecap="round" stroke-linejoin="round"/>
<path d="M70 274C89.3851 258.644 94.524 233.004 122.778 243.421C126.805 244.906 129.925 249.919 134.464 249.919C139.238 249.919 141.747 243.803 146.339 243.803C155.934 243.803 162.405 266.108 165 274" stroke="white" stroke-linecap="round" stroke-linejoin="round"/>
<path d="M161 236.329C164.191 232.003 178.343 208.463 185.093 208.055C191.719 207.655 204.219 198.483 208.421 199.023C219.068 200.389 195.419 218.242 195.419 229.26C195.419 237.162 231.813 229.712 236.339 228.868C242.553 227.707 248.725 220.07 255.46 222.585C260.471 224.456 259.473 231.025 262.726 234.365C266.921 238.673 268.802 245.345 276.111 243.201C283.772 240.953 290.724 238.289 300.204 240.059C305.509 241.05 309 254 309 254" stroke="white" stroke-linecap="round" stroke-linejoin="round"/>
<path d="M280.852 124C278.836 135.638 272.622 150.22 274.277 162.267C275.248 169.326 286.234 165.148 290.995 166.562C297.092 168.372 300.615 175.796 301.139 181.79C302.261 194.616 312.024 188.888 320.675 191.552C334.208 195.72 342.62 216.829 353.547 225.914C355.753 227.749 362 243.774 362 247" stroke="white" stroke-linecap="round" stroke-linejoin="round"/>
<path d="M343 148C348.617 162.567 356.218 178.292 357 194.172C357.397 202.221 355.658 211.131 357.389 219.034C360.341 232.515 371 235.398 371 251" stroke="white" stroke-linecap="round" stroke-linejoin="round"/>
<path d="M309 148C303.791 157.61 299.269 167.051 295 177" stroke="white" stroke-linecap="round" stroke-linejoin="round"/>
<path d="M376 67C383.665 88.8825 393.845 93.5179 408.115 110.167C416.221 119.623 423.347 136.18 432.923 143.222C440.144 148.532 438.173 157.414 443.308 165.778C453.952 183.118 466 207.675 466 228" stroke="white" stroke-linecap="round" stroke-linejoin="round"/>
<path d="M448 46C462.634 67.4765 466.813 73.3355 459.42 94.5848C455.541 105.734 455.76 116.479 457.845 127.889C460.365 141.677 452.803 147.572 451.544 158.842C450.657 166.784 458.046 173.834 462.177 180" stroke="white" stroke-linecap="round" stroke-linejoin="round"/>
</svg>
