<?xml version="1.0" encoding="utf-8"?>
<!-- Generator: Adobe Illustrator 25.0.1, SVG Export Plug-In . SVG Version: 6.00 Build 0)  -->
<svg version="1.1" id="Layer_2" xmlns="http://www.w3.org/2000/svg" xmlns:xlink="http://www.w3.org/1999/xlink" x="0px" y="0px"
	 viewBox="0 175 500 150" style="enable-background:new 0 0 500 500;" xml:space="preserve" fill="#fefffe">
<g>
	<path d="M412.25,236.36c-0.19,1.24-0.36,2.48-0.59,3.71c-1.42,7.53-4.87,13.66-12.56,16.15c-4.89,1.59-9.98,1.64-14.51-1.45
		c-1.45-0.99-2.61-2.42-4.03-3.76c0,0.52,0,1,0,1.49c0,9.27-0.03,18.55,0.03,27.82c0.01,1.46-0.55,1.83-1.87,1.88
		c-5.82,0.24-11.63,0.55-17.44,0.85c-5.11,0.26-10.23,0.55-15.34,0.83c-5.16,0.28-10.32,0.56-15.48,0.84
		c-5.16,0.28-10.32,0.56-15.48,0.84c-5.16,0.28-10.32,0.56-15.48,0.84c-5.11,0.28-10.23,0.56-15.34,0.84
		c-5.21,0.28-10.41,0.56-15.62,0.84c-5.16,0.28-10.32,0.56-15.49,0.83c-7.3,0.39-14.61,0.76-21.91,1.15
		c-6.79,0.36-13.59,0.74-20.38,1.11c-6.93,0.38-13.87,0.75-20.8,1.13c-6.84,0.37-13.68,0.74-20.52,1.11
		c-6.89,0.37-13.78,0.75-20.66,1.12c-6.89,0.38-13.78,0.74-20.66,1.13c-3.11,0.17-6.21,0.39-9.4,0.59c0-16.31,0-32.44,0-48.73
		c0.57,1.12,1.04,2.1,1.58,3.06c2.06,3.67,5.47,5.79,9.04,7.68c0.79,0.42,1.05,0.82,1.04,1.67c-0.03,7.18-0.02,14.35-0.02,21.53
		c0,0.5,0,1.01,0,1.64c0.81-0.11,1.48-0.25,2.15-0.28c5.5-0.3,11-0.58,16.49-0.87c5.43-0.28,10.86-0.54,16.28-0.86
		c6.77-0.4,13.53-0.87,20.3-1.27c4.1-0.24,8.2-0.42,12.3-0.64c6.1-0.33,12.2-0.7,18.3-0.99c2.76-0.13,5.53-0.06,8.29-0.2
		c3.74-0.19,7.47-0.5,11.21-0.73c3.75-0.23,7.51-0.44,11.26-0.63c5.87-0.3,11.74-0.55,17.6-0.86c5.06-0.26,10.12-0.59,15.19-0.87
		c6.43-0.36,12.86-0.68,19.29-1.05c7.54-0.43,15.08-0.9,22.61-1.34c3.49-0.2,6.98-0.44,10.47-0.56c2.87-0.1,5.75,0.08,8.62-0.08
		c4.55-0.25,9.09-0.73,13.65-1.03c4.04-0.26,8.09-0.41,12.13-0.61c0.64-0.03,1.28-0.1,2.07-0.17c0-0.65,0-1.2,0-1.74
		c0-12.72,0.03-25.45-0.02-38.17c-0.01-2.77,0.87-5.28,1.61-7.88c0.8-2.84,2.53-5.05,4.46-7.12c1.73-1.85,3.7-3.48,6.18-4.28
		c2.3-0.74,4.57-1.81,6.92-2.05c2.68-0.27,5.59-0.26,8.14,0.49c7.91,2.35,13.69,7.08,15.53,15.58c0.32,1.49,0.58,2.99,0.87,4.49
		C412.25,231.7,412.25,234.03,412.25,236.36z M400.15,233.5c-0.25-1.67-0.37-3.38-0.79-5.01c-1.18-4.59-3.57-8.49-10.03-8.13
		c-3.39,0.19-5.77,1.73-7.26,4.63c-2.17,4.23-2.07,8.77-1.51,13.34c0.56,4.55,4.17,9.12,10.01,8.75c3.01-0.19,5.19-1.43,6.84-3.74
		C399.51,240.41,400,237.03,400.15,233.5z"/>
	<path d="M311.66,194.69c-0.01,19.61-0.02,39.23-0.02,58.84c0,0.55,0,1.1,0,1.74c-4,0-7.9,0-12.02,0c0-20.18,0-40.38,0-60.58
		C303.63,194.69,307.65,194.69,311.66,194.69z"/>
	<path d="M259.47,241.97c-1.09,7.21-9.06,13.58-16.18,14.25c-4.51,0.42-8.93,0.56-13.26-1.08c-7.6-2.88-12.32-8.09-13.32-16.31
		c-0.26-2.14-0.58-4.31-0.53-6.46c0.14-5.13,0.99-10.16,3.86-14.55c3.03-4.64,7.39-7.57,12.82-8.48c5.57-0.94,11.16-0.79,16.33,1.89
		c5.57,2.9,8.8,7.69,9.99,13.72c0.7,3.55,0.81,7.21,1.21,11.05c-10.97,0-21.57,0-32.18,0c0.16,4.99,2.58,9.86,7.97,10.76
		c4.63,0.77,7.65,0.3,10.48-3.88c0.49-0.72,0.96-0.95,1.79-0.94C252.1,242,255.74,241.97,259.47,241.97z M247.61,227.92
		c-0.19-5.94-4.32-8.51-7.95-8.9c-6.38-0.69-10.01,2.32-11.16,8.9C234.88,227.92,241.25,227.92,247.61,227.92z"/>
	<path d="M347.97,250.76c-2.11,1.39-4.17,3.18-6.56,4.22c-5.64,2.47-11.36,2.43-16.61-1.09c-2.72-1.82-4.26-4.55-4.76-7.92
		c-0.38-2.62-0.21-5.14,0.47-7.63c1.2-4.34,4.22-7.08,8.37-8.32c3.31-0.99,6.8-1.38,10.21-2.03c1.97-0.38,3.97-0.66,5.91-1.16
		c1.59-0.41,2.56-1.93,2.55-3.54c-0.01-1.74-0.96-3.2-2.55-3.71c-2.7-0.88-5.47-0.85-8.19-0.23c-2.06,0.47-3.67,2.94-3.96,5.8
		c-1.93,0-3.87,0-5.82,0c-1.9,0-3.81,0-5.72,0c0.32-7.24,3.36-13.14,11.84-14.94c7.05-1.5,14.1-1.2,20.77,2.1
		c3.46,1.71,5.18,4.67,5.28,8.27c0.28,9.39,0.22,18.78,0.37,28.17c0.03,1.81,0.16,3.68,2.15,4.73c0.35,0.19,0.32,1.1,0.49,1.79
		c-4.5,0-8.78,0-13.27,0C348.61,253.74,348.27,252.15,347.97,250.76z M347.53,234.17c-2.86,0.65-5.6,1.22-8.32,1.9
		c-2.15,0.54-4.39,0.82-6.04,2.65c-1.84,2.04-2.04,6.55,0.93,8.35c1.55,0.94,3.12,0.91,4.67,0.73c3.19-0.38,6.04-1.54,7.62-4.64
		C347.9,240.23,347.53,237.07,347.53,234.17z"/>
	<path d="M141.55,209.41c4.04-0.09,7.88,0.56,11.54,2.35c3.77,1.84,6.32,4.84,8.35,8.37c3.01,5.21,3.56,10.94,3.03,16.73
		c-0.46,5.03-2.33,9.61-5.71,13.56c-3.26,3.8-7.4,5.7-12.24,6.34c-4.41,0.59-8.82,0.61-13.12-0.62c-4.96-1.42-8.61-4.55-11.19-9.01
		c-1.89-3.27-2.88-6.75-3.34-10.48c-0.81-6.56,0.5-12.61,3.98-18.17c3.13-4.99,7.74-7.84,13.58-8.64
		C138.13,209.59,139.85,209.54,141.55,209.41z M152.1,233.25c-0.13-1.37-0.25-2.75-0.4-4.12c-0.55-5.14-4.15-10.18-10.86-9.62
		c-3.58,0.3-6.24,1.8-7.87,4.93c-2.3,4.41-2.15,9.14-1.34,13.87c0.36,2.12,1.18,4.12,2.67,5.77c2.23,2.46,5.06,3.11,8.26,2.95
		c2.92-0.15,5.2-1.38,6.89-3.7C151.64,240.33,152.13,236.87,152.1,233.25z"/>
	<path d="M200.8,210.13c4.27,0,8.47,0,12.87,0c-5.42,15.1-10.8,30.1-16.22,45.21c-3.89,0-7.86,0.02-11.82-0.04
		c-0.3,0-0.74-0.46-0.86-0.8c-1.53-4.2-3.01-8.42-4.51-12.62c-3.66-10.22-7.33-20.43-11-30.65c-0.12-0.34-0.21-0.7-0.34-1.15
		c4.22,0,8.36-0.03,12.5,0.05c0.39,0.01,1,0.59,1.12,1.01c1.24,4.2,2.38,8.42,3.57,12.63c1.73,6.14,3.47,12.27,5.22,18.4
		c0,0.02,0.08,0.01,0.28,0.03C194.67,231.54,197.73,220.84,200.8,210.13z"/>
	<path d="M266.65,210.14c3.71,0,7.29,0,11,0c0,2.42,0,4.82,0,7.22c0.09,0.09,0.18,0.18,0.28,0.27c3.2-5.73,7.68-9.05,14.57-7.93
		c0,3.82,0,7.71,0,11.81c-1.44,0-2.91-0.02-4.39,0c-6.4,0.09-9.37,3.93-9.49,9.46c-0.17,7.54-0.04,15.09-0.04,22.64
		c0,0.51,0,1.02,0,1.63c-4,0-7.93,0-11.93,0C266.65,240.24,266.65,225.26,266.65,210.14z"/>
</g>
</svg>
