    <svg 
        width="295" 
        height="103" 
        viewBox="0 0 295 103" 
        xmlns="http://www.w3.org/2000/svg"
    >
            <path 
                d="M294.25 42.36C294.06 43.6 293.89 44.84 293.66 46.07C292.24 53.6 288.79 59.73 281.1 62.22C276.21 63.81 271.12 63.86 266.59 60.77C265.14 59.78 263.98 58.35 262.56 57.01C262.56 57.53 262.56 58.01 262.56 58.5C262.56 67.77 262.53 77.05 262.59 86.32C262.6 87.78 262.04 88.15 260.72 88.2C254.9 88.44 249.09 88.75 243.28 89.05C238.17 89.31 233.05 89.6 227.94 89.88C222.78 90.16 217.62 90.44 212.46 90.72C207.3 91 202.14 91.28 196.98 91.56C191.82 91.84 186.66 92.12 181.5 92.4C176.39 92.68 171.27 92.96 166.16 93.24C160.95 93.52 155.75 93.8 150.54 94.08C145.38 94.36 140.22 94.64 135.05 94.91C127.75 95.3 120.44 95.67 113.14 96.06C106.35 96.42 99.55 96.8 92.76 97.17C85.83 97.55 78.89 97.92 71.96 98.3C65.12 98.67 58.28 99.04 51.44 99.41C44.55 99.78 37.66 100.16 30.78 100.53C23.89 100.91 17 101.27 10.12 101.66C7.01 101.83 3.91 102.05 0.720001 102.25C0.720001 85.94 0.720001 69.81 0.720001 53.52C1.29 54.64 1.76 55.62 2.3 56.58C4.36 60.25 7.77 62.37 11.34 64.26C12.13 64.68 12.39 65.08 12.38 65.93C12.35 73.11 12.36 80.28 12.36 87.46C12.36 87.96 12.36 88.47 12.36 89.1C13.17 88.99 13.84 88.85 14.51 88.82C20.01 88.52 25.51 88.24 31 87.95C36.43 87.67 41.86 87.41 47.28 87.09C54.05 86.69 60.81 86.22 67.58 85.82C71.68 85.58 75.78 85.4 79.88 85.18C85.98 84.85 92.08 84.48 98.18 84.19C100.94 84.06 103.71 84.13 106.47 83.99C110.21 83.8 113.94 83.49 117.68 83.26C121.43 83.03 125.19 82.82 128.94 82.63C134.81 82.33 140.68 82.08 146.54 81.77C151.6 81.51 156.66 81.18 161.73 80.9C168.16 80.54 174.59 80.22 181.02 79.85C188.56 79.42 196.1 78.95 203.63 78.51C207.12 78.31 210.61 78.07 214.1 77.95C216.97 77.85 219.85 78.03 222.72 77.87C227.27 77.62 231.81 77.14 236.37 76.84C240.41 76.58 244.46 76.43 248.5 76.23C249.14 76.2 249.78 76.13 250.57 76.06C250.57 75.41 250.57 74.86 250.57 74.32C250.57 61.6 250.6 48.87 250.55 36.15C250.54 33.38 251.42 30.87 252.16 28.27C252.96 25.43 254.69 23.22 256.62 21.15C258.35 19.3 260.32 17.67 262.8 16.87C265.1 16.13 267.37 15.06 269.72 14.82C272.4 14.55 275.31 14.56 277.86 15.31C285.77 17.66 291.55 22.39 293.39 30.89C293.71 32.38 293.97 33.88 294.26 35.38C294.25 37.7 294.25 40.03 294.25 42.36ZM282.15 39.5C281.9 37.83 281.78 36.12 281.36 34.49C280.18 29.9 277.79 26 271.33 26.36C267.94 26.55 265.56 28.09 264.07 30.99C261.9 35.22 262 39.76 262.56 44.33C263.12 48.88 266.73 53.45 272.57 53.08C275.58 52.89 277.76 51.65 279.41 49.34C281.51 46.41 282 43.03 282.15 39.5Z" 
                fill="#2A2D34"
            />
            <path 
                d="M193.66 0.690002C193.65 20.3 193.64 39.92 193.64 59.53C193.64 60.08 193.64 60.63 193.64 61.27C189.64 61.27 185.74 61.27 181.62 61.27C181.62 41.09 181.62 20.89 181.62 0.690002C185.63 0.690002 189.65 0.690002 193.66 0.690002Z" 
                fill="#2A2D34"
            />
            <path 
                d="M141.47 47.97C140.38 55.18 132.41 61.55 125.29 62.22C120.78 62.64 116.36 62.78 112.03 61.14C104.43 58.26 99.71 53.05 98.71 44.83C98.45 42.69 98.13 40.52 98.18 38.37C98.32 33.24 99.17 28.21 102.04 23.82C105.07 19.18 109.43 16.25 114.86 15.34C120.43 14.4 126.02 14.55 131.19 17.23C136.76 20.13 139.99 24.92 141.18 30.95C141.88 34.5 141.99 38.16 142.39 42C131.42 42 120.82 42 110.21 42C110.37 46.99 112.79 51.86 118.18 52.76C122.81 53.53 125.83 53.06 128.66 48.88C129.15 48.16 129.62 47.93 130.45 47.94C134.1 48 137.74 47.97 141.47 47.97ZM129.61 33.92C129.42 27.98 125.29 25.41 121.66 25.02C115.28 24.33 111.65 27.34 110.5 33.92C116.88 33.92 123.25 33.92 129.61 33.92Z" 
                fill="#2A2D34"
            />
            <path 
                d="M229.97 56.76C227.86 58.15 225.8 59.94 223.41 60.98C217.77 63.45 212.05 63.41 206.8 59.89C204.08 58.07 202.54 55.34 202.04 51.97C201.66 49.35 201.83 46.83 202.51 44.34C203.71 40 206.73 37.26 210.88 36.02C214.19 35.03 217.68 34.64 221.09 33.99C223.06 33.61 225.06 33.33 227 32.83C228.59 32.42 229.56 30.9 229.55 29.29C229.54 27.55 228.59 26.09 227 25.58C224.3 24.7 221.53 24.73 218.81 25.35C216.75 25.82 215.14 28.29 214.85 31.15C212.92 31.15 210.98 31.15 209.03 31.15C207.13 31.15 205.22 31.15 203.31 31.15C203.63 23.91 206.67 18.01 215.15 16.21C222.2 14.71 229.25 15.01 235.92 18.31C239.38 20.02 241.1 22.98 241.2 26.58C241.48 35.97 241.42 45.36 241.57 54.75C241.6 56.56 241.73 58.43 243.72 59.48C244.07 59.67 244.04 60.58 244.21 61.27C239.71 61.27 235.43 61.27 230.94 61.27C230.61 59.74 230.27 58.15 229.97 56.76ZM229.53 40.17C226.67 40.82 223.93 41.39 221.21 42.07C219.06 42.61 216.82 42.89 215.17 44.72C213.33 46.76 213.13 51.27 216.1 53.07C217.65 54.01 219.22 53.98 220.77 53.8C223.96 53.42 226.81 52.26 228.39 49.16C229.9 46.23 229.53 43.07 229.53 40.17Z" 
                fill="#2A2D34"
            />
            <path 
                d="M23.55 15.41C27.59 15.32 31.43 15.97 35.09 17.76C38.86 19.6 41.41 22.6 43.44 26.13C46.45 31.34 47 37.07 46.47 42.86C46.01 47.89 44.14 52.47 40.76 56.42C37.5 60.22 33.36 62.12 28.52 62.76C24.11 63.35 19.7 63.37 15.4 62.14C10.44 60.72 6.79 57.59 4.21 53.13C2.32 49.86 1.33001 46.38 0.870008 42.65C0.0600085 36.09 1.37 30.04 4.85 24.48C7.98 19.49 12.59 16.64 18.43 15.84C20.13 15.59 21.85 15.54 23.55 15.41ZM34.1 39.25C33.97 37.88 33.85 36.5 33.7 35.13C33.15 29.99 29.55 24.95 22.84 25.51C19.26 25.81 16.6 27.31 14.97 30.44C12.67 34.85 12.82 39.58 13.63 44.31C13.99 46.43 14.81 48.43 16.3 50.08C18.53 52.54 21.36 53.19 24.56 53.03C27.48 52.88 29.76 51.65 31.45 49.33C33.64 46.33 34.13 42.87 34.1 39.25Z" 
                fill="#2A2D34"
            />
            <path 
                d="M82.8 16.13C87.07 16.13 91.27 16.13 95.67 16.13C90.25 31.23 84.87 46.23 79.45 61.34C75.56 61.34 71.59 61.36 67.63 61.3C67.33 61.3 66.89 60.84 66.77 60.5C65.24 56.3 63.76 52.08 62.26 47.88C58.6 37.66 54.93 27.45 51.26 17.23C51.14 16.89 51.05 16.53 50.92 16.08C55.14 16.08 59.28 16.05 63.42 16.13C63.81 16.14 64.42 16.72 64.54 17.14C65.78 21.34 66.92 25.56 68.11 29.77C69.84 35.91 71.58 42.04 73.33 48.17C73.33 48.19 73.41 48.18 73.61 48.2C76.67 37.54 79.73 26.84 82.8 16.13Z" 
                fill="#2A2D34"
            />
            <path 
                d="M148.65 16.14C152.36 16.14 155.94 16.14 159.65 16.14C159.65 18.56 159.65 20.96 159.65 23.36C159.74 23.45 159.83 23.54 159.93 23.63C163.13 17.9 167.61 14.58 174.5 15.7C174.5 19.52 174.5 23.41 174.5 27.51C173.06 27.51 171.59 27.49 170.11 27.51C163.71 27.6 160.74 31.44 160.62 36.97C160.45 44.51 160.58 52.06 160.58 59.61C160.58 60.12 160.58 60.63 160.58 61.24C156.58 61.24 152.65 61.24 148.65 61.24C148.65 46.24 148.65 31.26 148.65 16.14Z" 
                fill="#2A2D34"
            />
    </svg>