<svg 
    width="36" 
    height="18" 
    viewBox="0 0 25 14" 
    fill="none" 
    xmlns="http://www.w3.org/2000/svg">
<path 
    d="M8.33333 5.38462H5.20833V2.15385H3.125V5.38462H0V7.53846H3.125V10.7692H5.20833V7.53846H8.33333V5.38462ZM18.75 6.46154C20.4792 6.46154 21.8646 5.01846 21.8646 3.23077C21.8646 1.44308 20.4792 0 18.75 0C18.4167 0 18.0938 0.053846 17.8021 0.150769C18.3958 1.02308 18.7396 2.07846 18.7396 3.23077C18.7396 4.38308 18.3854 5.42769 17.8021 6.31077C18.0938 6.40769 18.4167 6.46154 18.75 6.46154ZM13.5417 6.46154C15.2708 6.46154 16.6562 5.01846 16.6562 3.23077C16.6562 1.44308 15.2708 0 13.5417 0C11.8125 0 10.4167 1.44308 10.4167 3.23077C10.4167 5.01846 11.8125 6.46154 13.5417 6.46154ZM20.4375 8.78769C21.3021 9.57385 21.875 10.5754 21.875 11.8462V14H25V11.8462C25 10.1877 22.5312 9.16462 20.4375 8.78769ZM13.5417 8.61539C11.4583 8.61539 7.29167 9.69231 7.29167 11.8462V14H19.7917V11.8462C19.7917 9.69231 15.625 8.61539 13.5417 8.61539Z" 
    fill="#fefffe"/>
</svg>
